# xmcd
#
# Track frame offsets:
#	150
#	14722
#	26250
#	39695
#	54487
#	66075
#	79312
#	93967
#	107022
#	121272
#	137162
#	151795
#	162640
#	175925
#	186920
#	198597
#	211007
#	221982
#	234810
#	249472
#
# Disc length: 3448
#
# Revision: 4
# Processed by: cddbd v1.5.1PL0 Copyright (c) Steve Scherf et al.
# Submitted via: MusicWizard 7.0.2
# Normalized: r3:TSWAP
#
DISCID=160d7614
DTITLE=Various Artist - Mega Country (3/10)
DYEAR=1997
DGENRE=Country
TTITLE0=The Bellamy Brothers - If I Said You Had A Beautiful Body
TTITLE1=Sammi Smith - Help Me Make It Through The Night
TTITLE2=Mickey Gilley - True Love Ways
TTITLE3=Johnny Cash and Waylon Jennings - There Ain't No Good Chain Gang
TTITLE4=Patsy Cline - Lonely Street
TTITLE5=Conway Twitty - Danny Boy
TTITLE6=Eddie Rabbitt - Drivin' My Life Away
TTITLE7=Crystal Gayle - Talkin' In Your Sleep
TTITLE8=Roy Clark - Tips Of My Fingers
TTITLE9=Tammy Wynette - The Wonders You Perform
TTITLE10=Ernest Tubb and George Jones - Filipino Baby
TTITLE11=Ferlin Husky - Gone
TTITLE12=Dottie West - Blue Fiddle Waltz
TTITLE13=Guy Mitchell - Singing The Blues
TTITLE14=Don Gibson - Oh Lonesome Me
TTITLE15=Barbara Mandrell - Midnight Oil
TTITLE16=Roger Miller - Husbands And Wives
TTITLE17=Jerry Wallace - In The Misty Moonlight
TTITLE18=Jeannie C. Riley - Harper Valley PTA
TTITLE19=The Everly Brothers - Wake Up Little Susie
EXTD=
EXTT0=
EXTT1=
EXTT2=
EXTT3=
EXTT4=
EXTT5=
EXTT6=
EXTT7=
EXTT8=
EXTT9=
EXTT10=
EXTT11=
EXTT12=
EXTT13=
EXTT14=
EXTT15=
EXTT16=
EXTT17=
EXTT18=
EXTT19=
PLAYORDER=
